STARTFONT 2.1
FONT -Adobe-ITC Avant Garde Gothic-Book-R-Normal--17-120-100-100-P-93-ISO8859-1
SIZE 12 100 100
FONTBOUNDINGBOX 20 17 -2 -4

STARTPROPERTIES 26
_DEC_DEVICE_FONTNAMES "PS=AvantGarde-Book"
FONTNAME_REGISTRY ""
FAMILY_NAME "ITC Avant Garde Gothic"
FOUNDRY "Adobe"
WEIGHT_NAME "Book"
SLANT "R"
SETWIDTH_NAME "Normal"
ADD_STYLE_NAME ""
PIXEL_SIZE 17
POINT_SIZE 120
RESOLUTION_X 100
RESOLUTION_Y 100
SPACING "P"
AVERAGE_WIDTH 93
CHARSET_REGISTRY "ISO8859"
CHARSET_ENCODING "1"
CHARSET_COLLECTIONS "ASCII ISO8859-1 ADOBE-STANDARD"
FULL_NAME "ITC Avant Garde Gothic Book"
COPYRIGHT "Copyright (c) 1991 Adobe Systems, Inc."
CAP_HEIGHT 13
X_HEIGHT 9
WEIGHT 10
QUAD_WIDTH 11
DEFAULT_CHAR 0
FONT_DESCENT 4
FONT_ASCENT 13
ENDPROPERTIES

CHARS 190

STARTCHAR space
ENCODING 32
SWIDTH 277 0
DWIDTH 4 0
BBX 1 1 0 0
BITMAP
00
ENDCHAR

STARTCHAR exclam
ENCODING 33
SWIDTH 295 0
DWIDTH 5 0
BBX 1 13 2 0
BITMAP
80
80
80
80
80
80
80
80
80
80
00
80
80
ENDCHAR

STARTCHAR quotedbl
ENCODING 34
SWIDTH 309 0
DWIDTH 5 0
BBX 3 4 1 9
BITMAP
A0
A0
A0
A0
ENDCHAR

STARTCHAR numbersign
ENCODING 35
SWIDTH 554 0
DWIDTH 9 0
BBX 9 12 0 0
BITMAP
0900
0900
0900
1200
7F80
1200
2400
FF00
2400
4800
4800
4800
ENDCHAR

STARTCHAR dollar
ENCODING 36
SWIDTH 554 0
DWIDTH 9 0
BBX 6 15 1 -2
BITMAP
10
10
78
84
84
80
40
30
08
04
84
84
78
20
20
ENDCHAR

STARTCHAR percent
ENCODING 37
SWIDTH 775 0
DWIDTH 13 0
BBX 11 13 1 0
BITMAP
7080
8880
8900
8900
7200
0200
0400
0800
09C0
1220
1220
2220
21C0
ENDCHAR

STARTCHAR ampersand
ENCODING 38
SWIDTH 757 0
DWIDTH 13 0
BBX 11 13 1 0
BITMAP
1800
2400
4200
4200
2400
1880
2880
4500
8300
8100
8280
4440
3820
ENDCHAR

STARTCHAR quoteright
ENCODING 39
SWIDTH 351 0
DWIDTH 6 0
BBX 2 3 2 10
BITMAP
40
40
80
ENDCHAR

STARTCHAR parenleft
ENCODING 40
SWIDTH 369 0
DWIDTH 6 0
BBX 5 15 1 -2
BITMAP
08
10
20
40
40
80
80
80
80
80
40
40
20
10
08
ENDCHAR

STARTCHAR parenright
ENCODING 41
SWIDTH 369 0
DWIDTH 6 0
BBX 5 15 0 -2
BITMAP
80
40
20
10
10
08
08
08
08
08
10
10
20
40
80
ENDCHAR

STARTCHAR asterisk
ENCODING 42
SWIDTH 425 0
DWIDTH 7 0
BBX 5 5 1 8
BITMAP
50
20
F8
20
50
ENDCHAR

STARTCHAR plus
ENCODING 43
SWIDTH 606 0
DWIDTH 10 0
BBX 7 9 1 1
BITMAP
10
10
10
10
FE
10
10
10
10
ENDCHAR

STARTCHAR comma
ENCODING 44
SWIDTH 277 0
DWIDTH 5 0
BBX 2 3 1 -1
BITMAP
40
40
80
ENDCHAR

STARTCHAR minus
ENCODING 45
SWIDTH 606 0
DWIDTH 10 0
BBX 8 1 1 5
BITMAP
FF
ENDCHAR

STARTCHAR period
ENCODING 46
SWIDTH 277 0
DWIDTH 4 0
BBX 1 2 1 0
BITMAP
80
80
ENDCHAR

STARTCHAR slash
ENCODING 47
SWIDTH 437 0
DWIDTH 7 0
BBX 5 15 1 -2
BITMAP
08
08
08
10
10
10
20
20
20
40
40
40
80
80
80
ENDCHAR

STARTCHAR zero
ENCODING 48
SWIDTH 554 0
DWIDTH 9 0
BBX 7 13 1 0
BITMAP
38
44
82
82
82
82
82
82
82
82
82
44
38
ENDCHAR

STARTCHAR one
ENCODING 49
SWIDTH 554 0
DWIDTH 9 0
BBX 3 13 2 0
BITMAP
E0
20
20
20
20
20
20
20
20
20
20
20
20
ENDCHAR

STARTCHAR two
ENCODING 50
SWIDTH 554 0
DWIDTH 9 0
BBX 7 13 1 0
BITMAP
38
44
82
82
02
04
04
08
10
20
40
80
FE
ENDCHAR

STARTCHAR three
ENCODING 51
SWIDTH 554 0
DWIDTH 9 0
BBX 8 13 0 0
BITMAP
1C
22
41
41
01
02
0C
02
01
81
81
42
3C
ENDCHAR

STARTCHAR four
ENCODING 52
SWIDTH 554 0
DWIDTH 9 0
BBX 8 13 0 0
BITMAP
06
0A
0A
12
12
22
22
42
42
82
FF
02
02
ENDCHAR

STARTCHAR five
ENCODING 53
SWIDTH 554 0
DWIDTH 9 0
BBX 8 13 0 0
BITMAP
3F
20
20
20
40
7C
42
01
01
81
81
42
3C
ENDCHAR

STARTCHAR six
ENCODING 54
SWIDTH 554 0
DWIDTH 9 0
BBX 8 13 0 0
BITMAP
04
08
10
10
20
7C
42
81
81
81
81
42
3C
ENDCHAR

STARTCHAR seven
ENCODING 55
SWIDTH 554 0
DWIDTH 9 0
BBX 7 13 1 0
BITMAP
FE
04
04
08
08
08
10
10
20
20
20
40
40
ENDCHAR

STARTCHAR eight
ENCODING 56
SWIDTH 554 0
DWIDTH 9 0
BBX 7 13 1 0
BITMAP
38
44
82
82
82
44
38
44
82
82
82
44
38
ENDCHAR

STARTCHAR nine
ENCODING 57
SWIDTH 554 0
DWIDTH 9 0
BBX 8 13 0 0
BITMAP
3C
42
81
81
81
81
42
3E
04
08
08
10
20
ENDCHAR

STARTCHAR colon
ENCODING 58
SWIDTH 277 0
DWIDTH 5 0
BBX 1 8 2 0
BITMAP
80
80
00
00
00
00
80
80
ENDCHAR

STARTCHAR semicolon
ENCODING 59
SWIDTH 277 0
DWIDTH 5 0
BBX 2 9 1 -1
BITMAP
40
40
00
00
00
00
40
40
80
ENDCHAR

STARTCHAR less
ENCODING 60
SWIDTH 606 0
DWIDTH 10 0
BBX 8 7 1 2
BITMAP
03
0C
30
C0
30
0C
03
ENDCHAR

STARTCHAR equal
ENCODING 61
SWIDTH 606 0
DWIDTH 10 0
BBX 8 4 1 3
BITMAP
FF
00
00
FF
ENDCHAR

STARTCHAR greater
ENCODING 62
SWIDTH 606 0
DWIDTH 10 0
BBX 8 7 1 2
BITMAP
C0
30
0C
03
0C
30
C0
ENDCHAR

STARTCHAR question
ENCODING 63
SWIDTH 591 0
DWIDTH 10 0
BBX 7 13 1 0
BITMAP
38
44
82
82
02
04
08
10
10
10
00
10
10
ENDCHAR

STARTCHAR at
ENCODING 64
SWIDTH 867 0
DWIDTH 14 0
BBX 12 13 1 0
BITMAP
0F00
30C0
4020
4760
8890
9090
9110
A120
9220
5240
4D80
3060
0F80
ENDCHAR

STARTCHAR A
ENCODING 65
SWIDTH 740 0
DWIDTH 12 0
BBX 11 13 0 0
BITMAP
0400
0400
0A00
0A00
1100
1100
2080
2080
3F80
4040
4040
8020
8020
ENDCHAR

STARTCHAR B
ENCODING 66
SWIDTH 574 0
DWIDTH 10 0
BBX 7 13 1 0
BITMAP
F8
84
82
82
82
84
F8
84
82
82
82
84
F8
ENDCHAR

STARTCHAR C
ENCODING 67
SWIDTH 813 0
DWIDTH 13 0
BBX 11 13 1 0
BITMAP
0F00
30C0
4020
4000
8000
8000
8000
8000
8000
4000
4020
30C0
0F00
ENDCHAR

STARTCHAR D
ENCODING 68
SWIDTH 744 0
DWIDTH 12 0
BBX 10 13 1 0
BITMAP
FC00
8300
8080
8080
8040
8040
8040
8040
8040
8080
8080
8300
FC00
ENDCHAR

STARTCHAR E
ENCODING 69
SWIDTH 536 0
DWIDTH 9 0
BBX 6 13 1 0
BITMAP
FC
80
80
80
80
80
FC
80
80
80
80
80
FC
ENDCHAR

STARTCHAR F
ENCODING 70
SWIDTH 485 0
DWIDTH 8 0
BBX 6 13 1 0
BITMAP
FC
80
80
80
80
80
FC
80
80
80
80
80
80
ENDCHAR

STARTCHAR G
ENCODING 71
SWIDTH 872 0
DWIDTH 14 0
BBX 12 13 1 0
BITMAP
0F00
30C0
4020
4000
8000
8000
8000
8FF0
8010
4020
4020
30C0
0F00
ENDCHAR

STARTCHAR H
ENCODING 72
SWIDTH 683 0
DWIDTH 12 0
BBX 9 13 1 0
BITMAP
8080
8080
8080
8080
8080
8080
FF80
8080
8080
8080
8080
8080
8080
ENDCHAR

STARTCHAR I
ENCODING 73
SWIDTH 226 0
DWIDTH 4 0
BBX 1 13 1 0
BITMAP
80
80
80
80
80
80
80
80
80
80
80
80
80
ENDCHAR

STARTCHAR J
ENCODING 74
SWIDTH 482 0
DWIDTH 8 0
BBX 6 13 0 0
BITMAP
04
04
04
04
04
04
04
04
04
04
84
84
78
ENDCHAR

STARTCHAR K
ENCODING 75
SWIDTH 591 0
DWIDTH 10 0
BBX 8 13 1 0
BITMAP
81
82
82
84
88
90
90
A0
D0
88
84
82
81
ENDCHAR

STARTCHAR L
ENCODING 76
SWIDTH 462 0
DWIDTH 8 0
BBX 6 13 1 0
BITMAP
80
80
80
80
80
80
80
80
80
80
80
80
FC
ENDCHAR

STARTCHAR M
ENCODING 77
SWIDTH 919 0
DWIDTH 15 0
BBX 12 13 1 0
BITMAP
C030
C030
A050
A050
A050
9090
9090
9090
8910
8910
8910
8610
8610
ENDCHAR

STARTCHAR N
ENCODING 78
SWIDTH 740 0
DWIDTH 12 0
BBX 9 13 1 0
BITMAP
C080
C080
A080
A080
9080
9080
8880
8480
8480
8280
8280
8180
8180
ENDCHAR

STARTCHAR O
ENCODING 79
SWIDTH 869 0
DWIDTH 14 0
BBX 12 13 1 0
BITMAP
0F00
30C0
4020
4020
8010
8010
8010
8010
8010
4020
4020
30C0
0F00
ENDCHAR

STARTCHAR P
ENCODING 80
SWIDTH 592 0
DWIDTH 10 0
BBX 8 13 1 0
BITMAP
FC
82
81
81
81
81
82
FC
80
80
80
80
80
ENDCHAR

STARTCHAR Q
ENCODING 81
SWIDTH 871 0
DWIDTH 14 0
BBX 12 13 1 0
BITMAP
0F00
30C0
4020
4020
8010
8010
8010
8010
FC10
4320
40A0
30C0
0F30
ENDCHAR

STARTCHAR R
ENCODING 82
SWIDTH 607 0
DWIDTH 10 0
BBX 8 13 1 0
BITMAP
FC
82
81
81
81
81
82
BC
90
88
84
82
81
ENDCHAR

STARTCHAR S
ENCODING 83
SWIDTH 498 0
DWIDTH 8 0
BBX 6 13 1 0
BITMAP
38
44
84
80
80
40
30
08
04
04
84
88
70
ENDCHAR

STARTCHAR T
ENCODING 84
SWIDTH 426 0
DWIDTH 7 0
BBX 7 13 0 0
BITMAP
FE
10
10
10
10
10
10
10
10
10
10
10
10
ENDCHAR

STARTCHAR U
ENCODING 85
SWIDTH 655 0
DWIDTH 11 0
BBX 8 13 1 0
BITMAP
81
81
81
81
81
81
81
81
81
81
81
42
3C
ENDCHAR

STARTCHAR V
ENCODING 86
SWIDTH 702 0
DWIDTH 12 0
BBX 11 13 0 0
BITMAP
8020
8020
4040
4040
2080
2080
2080
1100
1100
0A00
0A00
0400
0400
ENDCHAR

STARTCHAR W
ENCODING 87
SWIDTH 960 0
DWIDTH 16 0
BBX 13 13 1 0
BITMAP
8208
8208
8208
4510
4510
4510
4510
28A0
28A0
28A0
1040
1040
1040
ENDCHAR

STARTCHAR X
ENCODING 88
SWIDTH 609 0
DWIDTH 10 0
BBX 9 13 0 0
BITMAP
8080
8080
4100
2200
2200
1400
0800
1400
2200
2200
4100
8080
8080
ENDCHAR

STARTCHAR Y
ENCODING 89
SWIDTH 592 0
DWIDTH 10 0
BBX 9 13 0 0
BITMAP
8080
8080
4100
4100
2200
2200
1400
1400
0800
0800
0800
0800
0800
ENDCHAR

STARTCHAR Z
ENCODING 90
SWIDTH 480 0
DWIDTH 8 0
BBX 7 13 0 0
BITMAP
FE
02
04
04
08
08
10
20
20
40
40
80
FE
ENDCHAR

STARTCHAR bracketleft
ENCODING 91
SWIDTH 351 0
DWIDTH 6 0
BBX 3 15 2 -2
BITMAP
20
40
40
80
80
80
80
80
80
80
80
80
40
40
20
ENDCHAR

STARTCHAR backslash
ENCODING 92
SWIDTH 605 0
DWIDTH 10 0
BBX 6 13 1 0
BITMAP
80
80
40
40
20
20
30
10
10
08
08
04
04
ENDCHAR

STARTCHAR bracketright
ENCODING 93
SWIDTH 351 0
DWIDTH 6 0
BBX 3 15 1 -2
BITMAP
80
40
40
20
20
20
20
20
20
20
20
20
40
40
80
ENDCHAR

STARTCHAR asciicircum
ENCODING 94
SWIDTH 606 0
DWIDTH 10 0
BBX 9 10 0 3
BITMAP
0800
0800
1400
1400
2200
2200
4100
4100
8080
8080
ENDCHAR

STARTCHAR underscore
ENCODING 95
SWIDTH 500 0
DWIDTH 8 0
BBX 8 1 0 -2
BITMAP
FF
ENDCHAR

STARTCHAR quoteleft
ENCODING 96
SWIDTH 351 0
DWIDTH 6 0
BBX 2 3 2 10
BITMAP
80
80
40
ENDCHAR

STARTCHAR a
ENCODING 97
SWIDTH 683 0
DWIDTH 11 0
BBX 9 9 1 0
BITMAP
1E80
6180
4080
8080
8080
8080
4080
6180
1E80
ENDCHAR

STARTCHAR b
ENCODING 98
SWIDTH 682 0
DWIDTH 11 0
BBX 9 13 1 0
BITMAP
8000
8000
8000
8000
BC00
C300
8100
8080
8080
8080
8100
C300
BC00
ENDCHAR

STARTCHAR c
ENCODING 99
SWIDTH 647 0
DWIDTH 11 0
BBX 9 9 1 0
BITMAP
1E00
6100
4080
8000
8000
8000
4080
6100
1E00
ENDCHAR

STARTCHAR d
ENCODING 100
SWIDTH 685 0
DWIDTH 11 0
BBX 9 13 1 0
BITMAP
0080
0080
0080
0080
1E80
6180
4080
8080
8080
8080
4080
6180
1E80
ENDCHAR

STARTCHAR e
ENCODING 101
SWIDTH 650 0
DWIDTH 11 0
BBX 9 9 1 0
BITMAP
1C00
6300
4100
8080
FF80
8000
4080
6100
1E00
ENDCHAR

STARTCHAR f
ENCODING 102
SWIDTH 314 0
DWIDTH 5 0
BBX 4 13 1 0
BITMAP
30
40
40
40
F0
40
40
40
40
40
40
40
40
ENDCHAR

STARTCHAR g
ENCODING 103
SWIDTH 673 0
DWIDTH 11 0
BBX 9 12 1 -3
BITMAP
1E80
6180
4080
8080
8080
8080
4080
6180
1E80
8080
4100
3E00
ENDCHAR

STARTCHAR h
ENCODING 104
SWIDTH 610 0
DWIDTH 10 0
BBX 8 13 1 0
BITMAP
80
80
80
80
BC
C2
81
81
81
81
81
81
81
ENDCHAR

STARTCHAR i
ENCODING 105
SWIDTH 200 0
DWIDTH 3 0
BBX 1 13 1 0
BITMAP
80
80
00
00
80
80
80
80
80
80
80
80
80
ENDCHAR

STARTCHAR j
ENCODING 106
SWIDTH 203 0
DWIDTH 3 0
BBX 3 16 -1 -3
BITMAP
20
20
00
00
20
20
20
20
20
20
20
20
20
20
20
C0
ENDCHAR

STARTCHAR k
ENCODING 107
SWIDTH 502 0
DWIDTH 8 0
BBX 7 13 1 0
BITMAP
80
80
80
80
84
88
90
A0
E0
90
88
84
82
ENDCHAR

STARTCHAR l
ENCODING 108
SWIDTH 200 0
DWIDTH 3 0
BBX 1 13 1 0
BITMAP
80
80
80
80
80
80
80
80
80
80
80
80
80
ENDCHAR

STARTCHAR m
ENCODING 109
SWIDTH 938 0
DWIDTH 15 0
BBX 13 9 1 0
BITMAP
B8E0
C510
8208
8208
8208
8208
8208
8208
8208
ENDCHAR

STARTCHAR n
ENCODING 110
SWIDTH 610 0
DWIDTH 10 0
BBX 8 9 1 0
BITMAP
BC
C2
81
81
81
81
81
81
81
ENDCHAR

STARTCHAR o
ENCODING 111
SWIDTH 655 0
DWIDTH 11 0
BBX 10 9 0 0
BITMAP
1E00
6180
4080
8040
8040
8040
4080
6180
1E00
ENDCHAR

STARTCHAR p
ENCODING 112
SWIDTH 682 0
DWIDTH 11 0
BBX 9 12 1 -3
BITMAP
BC00
C300
8100
8080
8080
8080
8100
C300
BC00
8000
8000
8000
ENDCHAR

STARTCHAR q
ENCODING 113
SWIDTH 682 0
DWIDTH 11 0
BBX 9 12 1 -3
BITMAP
1E80
6180
4080
8080
8080
8080
4080
6180
1E80
0080
0080
0080
ENDCHAR

STARTCHAR r
ENCODING 114
SWIDTH 301 0
DWIDTH 5 0
BBX 4 9 1 0
BITMAP
B0
C0
80
80
80
80
80
80
80
ENDCHAR

STARTCHAR s
ENCODING 115
SWIDTH 388 0
DWIDTH 7 0
BBX 5 9 1 0
BITMAP
70
88
80
80
70
08
08
88
70
ENDCHAR

STARTCHAR t
ENCODING 116
SWIDTH 339 0
DWIDTH 6 0
BBX 5 13 0 0
BITMAP
20
20
20
20
F8
20
20
20
20
20
20
20
20
ENDCHAR

STARTCHAR u
ENCODING 117
SWIDTH 608 0
DWIDTH 10 0
BBX 8 9 1 0
BITMAP
81
81
81
81
81
81
81
43
3D
ENDCHAR

STARTCHAR v
ENCODING 118
SWIDTH 554 0
DWIDTH 9 0
BBX 8 9 0 0
BITMAP
81
81
42
42
42
24
24
18
18
ENDCHAR

STARTCHAR w
ENCODING 119
SWIDTH 831 0
DWIDTH 14 0
BBX 13 9 0 0
BITMAP
8008
8208
4210
4510
2520
28A0
28A0
1040
1040
ENDCHAR

STARTCHAR x
ENCODING 120
SWIDTH 480 0
DWIDTH 8 0
BBX 7 9 0 0
BITMAP
82
44
44
28
10
28
44
44
82
ENDCHAR

STARTCHAR y
ENCODING 121
SWIDTH 536 0
DWIDTH 9 0
BBX 8 12 0 -3
BITMAP
81
81
42
42
24
24
18
08
10
10
20
20
ENDCHAR

STARTCHAR z
ENCODING 122
SWIDTH 425 0
DWIDTH 7 0
BBX 6 9 0 0
BITMAP
FC
04
08
10
30
20
40
80
FC
ENDCHAR

STARTCHAR braceleft
ENCODING 123
SWIDTH 351 0
DWIDTH 6 0
BBX 3 15 1 -2
BITMAP
20
40
40
40
40
40
40
80
40
40
40
40
40
40
20
ENDCHAR

STARTCHAR bar
ENCODING 124
SWIDTH 672 0
DWIDTH 11 0
BBX 1 13 5 0
BITMAP
80
80
80
80
80
80
80
80
80
80
80
80
80
ENDCHAR

STARTCHAR braceright
ENCODING 125
SWIDTH 351 0
DWIDTH 6 0
BBX 3 15 1 -2
BITMAP
80
40
40
40
40
40
40
20
40
40
40
40
40
40
80
ENDCHAR

STARTCHAR asciitilde
ENCODING 126
SWIDTH 606 0
DWIDTH 10 0
BBX 8 2 1 4
BITMAP
71
8E
ENDCHAR

STARTCHAR exclamdown
ENCODING 161
SWIDTH 295 0
DWIDTH 5 0
BBX 1 13 2 -3
BITMAP
80
80
00
80
80
80
80
80
80
80
80
80
80
ENDCHAR

STARTCHAR cent
ENCODING 162
SWIDTH 554 0
DWIDTH 9 0
BBX 7 11 1 1
BITMAP
10
10
38
44
82
80
82
44
38
10
10
ENDCHAR

STARTCHAR sterling
ENCODING 163
SWIDTH 554 0
DWIDTH 9 0
BBX 9 13 0 0
BITMAP
1E00
2100
4080
4000
4000
2000
FE00
1000
0880
0880
0880
1100
7E00
ENDCHAR

STARTCHAR currency
ENCODING 164
SWIDTH 554 0
DWIDTH 9 0
BBX 8 8 0 1
BITMAP
BD
42
81
81
81
81
42
BD
ENDCHAR

STARTCHAR yen
ENCODING 165
SWIDTH 554 0
DWIDTH 9 0
BBX 9 13 0 0
BITMAP
8080
8080
4100
4100
2200
6300
1400
1400
7F00
0800
0800
0800
0800
ENDCHAR

STARTCHAR brokenbar
ENCODING 166
SWIDTH 672 0
DWIDTH 11 0
BBX 1 13 5 0
BITMAP
80
80
80
80
80
00
00
00
80
80
80
80
80
ENDCHAR

STARTCHAR section
ENCODING 167
SWIDTH 615 0
DWIDTH 10 0
BBX 6 15 2 -2
BITMAP
38
44
84
80
60
98
84
84
64
18
04
04
84
88
70
ENDCHAR

STARTCHAR dieresis
ENCODING 168
SWIDTH 369 0
DWIDTH 6 0
BBX 3 2 1 10
BITMAP
A0
A0
ENDCHAR

STARTCHAR copyright
ENCODING 169
SWIDTH 747 0
DWIDTH 13 0
BBX 13 13 0 0
BITMAP
0F80
3060
4010
4710
8888
9048
9008
9048
8888
4710
4010
3060
0F80
ENDCHAR

STARTCHAR ordfeminine
ENCODING 170
SWIDTH 369 0
DWIDTH 6 0
BBX 5 7 0 6
BITMAP
68
98
88
98
68
00
F8
ENDCHAR

STARTCHAR guillemotleft
ENCODING 171
SWIDTH 425 0
DWIDTH 7 0
BBX 6 7 0 2
BITMAP
24
48
48
90
48
48
24
ENDCHAR

STARTCHAR logicalnot
ENCODING 172
SWIDTH 606 0
DWIDTH 10 0
BBX 8 5 0 2
BITMAP
FF
01
01
01
01
ENDCHAR

STARTCHAR hyphen
ENCODING 173
SWIDTH 332 0
DWIDTH 5 0
BBX 4 1 0 5
BITMAP
F0
ENDCHAR

STARTCHAR registered
ENCODING 174
SWIDTH 747 0
DWIDTH 13 0
BBX 13 13 0 0
BITMAP
0F80
3060
4010
4F90
8848
8848
8F88
8908
8888
4850
4010
3060
0F80
ENDCHAR

STARTCHAR macron
ENCODING 175
SWIDTH 485 0
DWIDTH 8 0
BBX 5 1 1 10
BITMAP
F8
ENDCHAR

STARTCHAR degree
ENCODING 176
SWIDTH 400 0
DWIDTH 7 0
BBX 5 5 1 8
BITMAP
70
88
88
88
70
ENDCHAR

STARTCHAR plusminus
ENCODING 177
SWIDTH 606 0
DWIDTH 10 0
BBX 7 9 1 0
BITMAP
10
10
10
FE
10
10
10
00
FE
ENDCHAR

STARTCHAR twosuperior
ENCODING 178
SWIDTH 332 0
DWIDTH 6 0
BBX 5 8 0 5
BITMAP
70
88
88
08
10
20
40
F8
ENDCHAR

STARTCHAR threesuperior
ENCODING 179
SWIDTH 332 0
DWIDTH 6 0
BBX 5 8 0 5
BITMAP
70
88
08
30
08
88
88
70
ENDCHAR

STARTCHAR acute
ENCODING 180
SWIDTH 375 0
DWIDTH 6 0
BBX 3 2 1 10
BITMAP
60
C0
ENDCHAR

STARTCHAR mu
ENCODING 181
SWIDTH 608 0
DWIDTH 10 0
BBX 8 12 1 -3
BITMAP
81
81
81
81
81
81
81
C3
BD
80
80
80
ENDCHAR

STARTCHAR paragraph
ENCODING 182
SWIDTH 564 0
DWIDTH 9 0
BBX 7 15 1 -2
BITMAP
7E
F2
F2
F2
F2
72
12
12
12
12
12
12
12
12
12
ENDCHAR

STARTCHAR periodcentered
ENCODING 183
SWIDTH 277 0
DWIDTH 5 0
BBX 1 2 2 4
BITMAP
80
80
ENDCHAR

STARTCHAR cedilla
ENCODING 184
SWIDTH 324 0
DWIDTH 5 0
BBX 3 4 1 -3
BITMAP
40
C0
20
C0
ENDCHAR

STARTCHAR onesuperior
ENCODING 185
SWIDTH 332 0
DWIDTH 6 0
BBX 2 8 1 5
BITMAP
C0
40
40
40
40
40
40
40
ENDCHAR

STARTCHAR ordmasculine
ENCODING 186
SWIDTH 369 0
DWIDTH 6 0
BBX 5 7 0 6
BITMAP
70
88
88
88
70
00
F8
ENDCHAR

STARTCHAR guillemotright
ENCODING 187
SWIDTH 425 0
DWIDTH 7 0
BBX 6 7 0 2
BITMAP
90
48
48
24
48
48
90
ENDCHAR

STARTCHAR onequarter
ENCODING 188
SWIDTH 831 0
DWIDTH 14 0
BBX 11 13 1 0
BITMAP
C100
4100
4200
4200
4400
4440
4CC0
48C0
0940
1240
1240
27E0
2040
ENDCHAR

STARTCHAR onehalf
ENCODING 189
SWIDTH 831 0
DWIDTH 14 0
BBX 11 13 1 0
BITMAP
C200
4200
4400
4400
4800
49C0
5A20
5220
1020
2040
2080
4100
43E0
ENDCHAR

STARTCHAR threequarters
ENCODING 190
SWIDTH 831 0
DWIDTH 14 0
BBX 13 13 0 0
BITMAP
7040
8840
0880
3080
0900
8910
8B30
7250
0250
0490
0510
09F8
0810
ENDCHAR

STARTCHAR questiondown
ENCODING 191
SWIDTH 591 0
DWIDTH 10 0
BBX 7 13 1 -3
BITMAP
10
10
00
10
10
10
20
40
80
82
82
44
38
ENDCHAR

STARTCHAR Agrave
ENCODING 192
SWIDTH 740 0
DWIDTH 12 0
BBX 11 13 0 0
BITMAP
1800
0C00
0000
0400
0A00
1100
1100
2080
3F80
4040
4040
8020
8020
ENDCHAR

STARTCHAR Aacute
ENCODING 193
SWIDTH 740 0
DWIDTH 12 0
BBX 11 13 0 0
BITMAP
0300
0600
0000
0400
0A00
1100
1100
2080
3F80
4040
4040
8020
8020
ENDCHAR

STARTCHAR Acircumflex
ENCODING 194
SWIDTH 740 0
DWIDTH 12 0
BBX 11 13 0 0
BITMAP
0400
1B00
0000
0400
0A00
1100
1100
2080
3F80
4040
4040
8020
8020
ENDCHAR

STARTCHAR Atilde
ENCODING 195
SWIDTH 740 0
DWIDTH 12 0
BBX 11 13 0 0
BITMAP
1A00
1600
0000
0400
0A00
1100
1100
2080
3F80
4040
4040
8020
8020
ENDCHAR

STARTCHAR Adieresis
ENCODING 196
SWIDTH 740 0
DWIDTH 12 0
BBX 11 13 0 0
BITMAP
0A00
0A00
0000
0400
0A00
1100
1100
2080
3F80
4040
4040
8020
8020
ENDCHAR

STARTCHAR Aring
ENCODING 197
SWIDTH 740 0
DWIDTH 12 0
BBX 11 13 0 0
BITMAP
0400
0A00
0400
0400
0A00
1100
1100
2080
3F80
4040
4040
8020
8020
ENDCHAR

STARTCHAR AE
ENCODING 198
SWIDTH 992 0
DWIDTH 17 0
BBX 14 13 1 0
BITMAP
01FC
0180
0280
0480
0480
0880
10FC
1080
3F80
4080
4080
8080
80FC
ENDCHAR

STARTCHAR Ccedilla
ENCODING 199
SWIDTH 813 0
DWIDTH 13 0
BBX 11 16 1 -3
BITMAP
0F00
30C0
4020
4000
8000
8000
8000
8000
8000
4000
4020
30C0
0F00
0C00
0200
0C00
ENDCHAR

STARTCHAR Egrave
ENCODING 200
SWIDTH 536 0
DWIDTH 9 0
BBX 6 13 1 0
BITMAP
60
30
00
FC
80
80
80
FC
80
80
80
80
FC
ENDCHAR

STARTCHAR Eacute
ENCODING 201
SWIDTH 536 0
DWIDTH 9 0
BBX 6 13 1 0
BITMAP
18
30
00
FC
80
80
80
FC
80
80
80
80
FC
ENDCHAR

STARTCHAR Ecircumflex
ENCODING 202
SWIDTH 536 0
DWIDTH 9 0
BBX 6 13 1 0
BITMAP
20
D8
00
FC
80
80
80
FC
80
80
80
80
FC
ENDCHAR

STARTCHAR Edieresis
ENCODING 203
SWIDTH 536 0
DWIDTH 9 0
BBX 6 13 1 0
BITMAP
50
50
00
FC
80
80
80
FC
80
80
80
80
FC
ENDCHAR

STARTCHAR Igrave
ENCODING 204
SWIDTH 226 0
DWIDTH 4 0
BBX 3 13 -1 0
BITMAP
C0
60
00
20
20
20
20
20
20
20
20
20
20
ENDCHAR

STARTCHAR Iacute
ENCODING 205
SWIDTH 226 0
DWIDTH 4 0
BBX 3 13 1 0
BITMAP
60
C0
00
80
80
80
80
80
80
80
80
80
80
ENDCHAR

STARTCHAR Icircumflex
ENCODING 206
SWIDTH 226 0
DWIDTH 4 0
BBX 5 13 -1 0
BITMAP
20
D8
00
20
20
20
20
20
20
20
20
20
20
ENDCHAR

STARTCHAR Idieresis
ENCODING 207
SWIDTH 226 0
DWIDTH 4 0
BBX 3 13 0 0
BITMAP
A0
A0
00
40
40
40
40
40
40
40
40
40
40
ENDCHAR

STARTCHAR Eth
ENCODING 208
SWIDTH 790 0
DWIDTH 13 0
BBX 12 13 0 0
BITMAP
3F00
20C0
2020
2020
2010
2010
F810
2010
2010
2020
2020
20C0
3F00
ENDCHAR

STARTCHAR Ntilde
ENCODING 209
SWIDTH 740 0
DWIDTH 12 0
BBX 9 13 1 0
BITMAP
3400
2C00
0000
C080
C080
A080
9080
8880
8880
8480
8280
8180
8180
ENDCHAR

STARTCHAR Ograve
ENCODING 210
SWIDTH 869 0
DWIDTH 14 0
BBX 12 13 1 0
BITMAP
0C00
0600
0000
0F00
30C0
4020
4020
8010
8010
4020
4020
30C0
0F00
ENDCHAR

STARTCHAR Oacute
ENCODING 211
SWIDTH 869 0
DWIDTH 14 0
BBX 12 13 1 0
BITMAP
0300
0600
0000
0F00
30C0
4020
4020
8010
8010
4020
4020
30C0
0F00
ENDCHAR

STARTCHAR Ocircumflex
ENCODING 212
SWIDTH 869 0
DWIDTH 14 0
BBX 12 13 1 0
BITMAP
0400
1B00
0000
0F00
30C0
4020
4020
8010
8010
4020
4020
30C0
0F00
ENDCHAR

STARTCHAR Otilde
ENCODING 213
SWIDTH 869 0
DWIDTH 14 0
BBX 12 13 1 0
BITMAP
0D00
0B00
0000
0F00
30C0
4020
4020
8010
8010
4020
4020
30C0
0F00
ENDCHAR

STARTCHAR Odieresis
ENCODING 214
SWIDTH 869 0
DWIDTH 14 0
BBX 12 13 1 0
BITMAP
0A00
0A00
0000
0F00
30C0
4020
4020
8010
8010
4020
4020
30C0
0F00
ENDCHAR

STARTCHAR multiply
ENCODING 215
SWIDTH 606 0
DWIDTH 10 0
BBX 8 8 1 1
BITMAP
81
42
24
18
18
24
42
81
ENDCHAR

STARTCHAR Oslash
ENCODING 216
SWIDTH 868 0
DWIDTH 14 0
BBX 12 13 1 0
BITMAP
0F20
30C0
40A0
4120
8110
8210
8610
8410
8810
4820
5020
30C0
4F00
ENDCHAR

STARTCHAR Ugrave
ENCODING 217
SWIDTH 655 0
DWIDTH 11 0
BBX 8 13 1 0
BITMAP
30
18
00
81
81
81
81
81
81
81
81
42
3C
ENDCHAR

STARTCHAR Uacute
ENCODING 218
SWIDTH 655 0
DWIDTH 11 0
BBX 8 13 1 0
BITMAP
0C
18
00
81
81
81
81
81
81
81
81
42
3C
ENDCHAR

STARTCHAR Ucircumflex
ENCODING 219
SWIDTH 655 0
DWIDTH 11 0
BBX 8 13 1 0
BITMAP
10
6C
00
81
81
81
81
81
81
81
81
42
3C
ENDCHAR

STARTCHAR Udieresis
ENCODING 220
SWIDTH 655 0
DWIDTH 11 0
BBX 8 13 1 0
BITMAP
28
28
00
81
81
81
81
81
81
81
81
42
3C
ENDCHAR

STARTCHAR Yacute
ENCODING 221
SWIDTH 592 0
DWIDTH 10 0
BBX 9 13 0 0
BITMAP
0C00
1800
0000
8080
4100
2200
1400
1400
0800
0800
0800
0800
0800
ENDCHAR

STARTCHAR Thorn
ENCODING 222
SWIDTH 592 0
DWIDTH 10 0
BBX 8 13 1 0
BITMAP
80
80
80
FC
82
81
81
81
82
FC
80
80
80
ENDCHAR

STARTCHAR germandbls
ENCODING 223
SWIDTH 554 0
DWIDTH 9 0
BBX 7 13 1 0
BITMAP
30
48
84
84
84
88
B8
84
82
82
C2
C4
B8
ENDCHAR

STARTCHAR agrave
ENCODING 224
SWIDTH 683 0
DWIDTH 11 0
BBX 9 12 1 0
BITMAP
1800
0C00
0000
1E80
6180
4080
8080
8080
8080
4080
6180
1E80
ENDCHAR

STARTCHAR aacute
ENCODING 225
SWIDTH 683 0
DWIDTH 11 0
BBX 9 12 1 0
BITMAP
0C00
1800
0000
1E80
6180
4080
8080
8080
8080
4080
6180
1E80
ENDCHAR

STARTCHAR acircumflex
ENCODING 226
SWIDTH 683 0
DWIDTH 11 0
BBX 9 12 1 0
BITMAP
0800
3600
0000
1E80
6180
4080
8080
8080
8080
4080
6180
1E80
ENDCHAR

STARTCHAR atilde
ENCODING 227
SWIDTH 683 0
DWIDTH 11 0
BBX 9 12 1 0
BITMAP
3400
2C00
0000
1E80
6180
4080
8080
8080
8080
4080
6180
1E80
ENDCHAR

STARTCHAR adieresis
ENCODING 228
SWIDTH 683 0
DWIDTH 11 0
BBX 9 12 1 0
BITMAP
1400
1400
0000
1E80
6180
4080
8080
8080
8080
4080
6180
1E80
ENDCHAR

STARTCHAR aring
ENCODING 229
SWIDTH 683 0
DWIDTH 11 0
BBX 9 13 1 0
BITMAP
0800
1400
0800
0000
1E80
6180
4080
8080
8080
8080
4080
6180
1E80
ENDCHAR

STARTCHAR ae
ENCODING 230
SWIDTH 1157 0
DWIDTH 19 0
BBX 17 9 1 0
BITMAP
1E9C00
61E300
40C100
808080
80FF80
808000
40C080
61E100
1E9E00
ENDCHAR

STARTCHAR ccedilla
ENCODING 231
SWIDTH 647 0
DWIDTH 11 0
BBX 9 12 1 -3
BITMAP
1E00
6100
4080
8000
8000
8000
4080
6100
1E00
1800
0400
1800
ENDCHAR

STARTCHAR egrave
ENCODING 232
SWIDTH 650 0
DWIDTH 11 0
BBX 9 12 1 0
BITMAP
1800
0C00
0000
1C00
6300
4100
8080
FF80
8000
4080
6100
1E00
ENDCHAR

STARTCHAR eacute
ENCODING 233
SWIDTH 650 0
DWIDTH 11 0
BBX 9 12 1 0
BITMAP
0C00
1800
0000
1C00
6300
4100
8080
FF80
8000
4080
6100
1E00
ENDCHAR

STARTCHAR ecircumflex
ENCODING 234
SWIDTH 650 0
DWIDTH 11 0
BBX 9 12 1 0
BITMAP
0800
3600
0000
1C00
6300
4100
8080
FF80
8000
4080
6100
1E00
ENDCHAR

STARTCHAR edieresis
ENCODING 235
SWIDTH 650 0
DWIDTH 11 0
BBX 9 12 1 0
BITMAP
1400
1400
0000
1C00
6300
4100
8080
FF80
8000
4080
6100
1E00
ENDCHAR

STARTCHAR igrave
ENCODING 236
SWIDTH 200 0
DWIDTH 3 0
BBX 3 12 0 0
BITMAP
C0
60
00
40
40
40
40
40
40
40
40
40
ENDCHAR

STARTCHAR iacute
ENCODING 237
SWIDTH 200 0
DWIDTH 3 0
BBX 3 12 0 0
BITMAP
60
C0
00
40
40
40
40
40
40
40
40
40
ENDCHAR

STARTCHAR icircumflex
ENCODING 238
SWIDTH 200 0
DWIDTH 3 0
BBX 5 12 -1 0
BITMAP
20
D8
00
20
20
20
20
20
20
20
20
20
ENDCHAR

STARTCHAR idieresis
ENCODING 239
SWIDTH 200 0
DWIDTH 3 0
BBX 3 12 0 0
BITMAP
A0
A0
00
40
40
40
40
40
40
40
40
40
ENDCHAR

STARTCHAR eth
ENCODING 240
SWIDTH 655 0
DWIDTH 11 0
BBX 10 13 0 0
BITMAP
3300
0C00
1200
0100
1E80
6180
4080
8040
8040
8040
4080
6180
1E00
ENDCHAR

STARTCHAR ntilde
ENCODING 241
SWIDTH 610 0
DWIDTH 10 0
BBX 8 12 1 0
BITMAP
34
2C
00
BC
C2
81
81
81
81
81
81
81
ENDCHAR

STARTCHAR ograve
ENCODING 242
SWIDTH 655 0
DWIDTH 11 0
BBX 10 12 0 0
BITMAP
1800
0C00
0000
1E00
6180
4080
8040
8040
8040
4080
6180
1E00
ENDCHAR

STARTCHAR oacute
ENCODING 243
SWIDTH 655 0
DWIDTH 11 0
BBX 10 12 0 0
BITMAP
0600
0C00
0000
1E00
6180
4080
8040
8040
8040
4080
6180
1E00
ENDCHAR

STARTCHAR ocircumflex
ENCODING 244
SWIDTH 655 0
DWIDTH 11 0
BBX 10 12 0 0
BITMAP
0800
3600
0000
1E00
6180
4080
8040
8040
8040
4080
6180
1E00
ENDCHAR

STARTCHAR otilde
ENCODING 245
SWIDTH 655 0
DWIDTH 11 0
BBX 10 12 0 0
BITMAP
1A00
1600
0000
1E00
6180
4080
8040
8040
8040
4080
6180
1E00
ENDCHAR

STARTCHAR odieresis
ENCODING 246
SWIDTH 655 0
DWIDTH 11 0
BBX 10 12 0 0
BITMAP
1400
1400
0000
1E00
6180
4080
8040
8040
8040
4080
6180
1E00
ENDCHAR

STARTCHAR divide
ENCODING 247
SWIDTH 606 0
DWIDTH 10 0
BBX 7 9 1 1
BITMAP
10
10
00
00
FE
00
00
10
10
ENDCHAR

STARTCHAR oslash
ENCODING 248
SWIDTH 653 0
DWIDTH 11 0
BBX 10 11 0 -1
BITMAP
0080
1F00
6280
4280
8440
8C40
8840
5080
5180
3E00
4000
ENDCHAR

STARTCHAR ugrave
ENCODING 249
SWIDTH 608 0
DWIDTH 10 0
BBX 8 12 1 0
BITMAP
30
18
00
81
81
81
81
81
81
81
43
3D
ENDCHAR

STARTCHAR uacute
ENCODING 250
SWIDTH 608 0
DWIDTH 10 0
BBX 8 12 1 0
BITMAP
0C
18
00
81
81
81
81
81
81
81
43
3D
ENDCHAR

STARTCHAR ucircumflex
ENCODING 251
SWIDTH 608 0
DWIDTH 10 0
BBX 8 12 1 0
BITMAP
10
6C
00
81
81
81
81
81
81
81
43
3D
ENDCHAR

STARTCHAR udieresis
ENCODING 252
SWIDTH 608 0
DWIDTH 10 0
BBX 8 12 1 0
BITMAP
28
28
00
81
81
81
81
81
81
81
43
3D
ENDCHAR

STARTCHAR yacute
ENCODING 253
SWIDTH 536 0
DWIDTH 9 0
BBX 8 15 0 -3
BITMAP
0C
18
00
81
81
42
42
24
24
18
08
10
10
20
20
ENDCHAR

STARTCHAR thorn
ENCODING 254
SWIDTH 682 0
DWIDTH 11 0
BBX 9 16 1 -3
BITMAP
8000
8000
8000
8000
BC00
C300
8100
8080
8080
8080
8100
C300
BC00
8000
8000
8000
ENDCHAR

STARTCHAR ydieresis
ENCODING 255
SWIDTH 536 0
DWIDTH 9 0
BBX 8 15 0 -3
BITMAP
28
28
00
81
81
42
42
24
24
18
08
10
10
20
20
ENDCHAR
ENDFONT
